<?xml version="1.0" encoding="utf-8" ?>
<svg baseProfile="tiny" height="100%" version="1.2" width="100%" xmlns="http://www.w3.org/2000/svg" xmlns:ev="http://www.w3.org/2001/xml-events" xmlns:xlink="http://www.w3.org/1999/xlink"><defs /><circle cx="-3104.0" cy="21552.0" fill="red" r="30" stroke="red" /><circle cx="-2397.4854" cy="21552.0" fill="red" r="30" stroke="red" /><circle cx="-1690.9708" cy="21552.0" fill="red" r="30" stroke="red" /><circle cx="-984.4562" cy="21552.0" fill="red" r="30" stroke="red" /><circle cx="-277.9416" cy="21552.0" fill="red" r="30" stroke="red" /><circle cx="0.0" cy="21980.573" fill="red" r="30" stroke="red" /><circle cx="0.0" cy="22687.0876" fill="red" r="30" stroke="red" /><circle cx="204.7796" cy="22899.2204" fill="red" r="30" stroke="red" /><circle cx="704.3609" cy="22399.6391" fill="red" r="30" stroke="red" /><circle cx="1203.9422" cy="21900.0578" fill="red" r="30" stroke="red" /><circle cx="1703.5234" cy="21400.4766" fill="red" r="30" stroke="red" /><circle cx="2203.1047" cy="20900.8953" fill="red" r="30" stroke="red" /><circle cx="2702.6859" cy="20401.3141" fill="red" r="30" stroke="red" /><circle cx="3005.7328" cy="19901.7328" fill="red" r="30" stroke="red" /><circle cx="2506.1515" cy="19402.1515" fill="red" r="30" stroke="red" /><circle cx="2006.5703" cy="18902.5703" fill="red" r="30" stroke="red" /><circle cx="1506.989" cy="18402.989" fill="red" r="30" stroke="red" /><circle cx="1007.4078" cy="17903.4078" fill="red" r="30" stroke="red" /><circle cx="507.8265" cy="17403.8265" fill="red" r="30" stroke="red" /><circle cx="8.2452" cy="16904.2452" fill="red" r="30" stroke="red" /><circle cx="0.0" cy="17590.8541" fill="red" r="30" stroke="red" /><circle cx="0.0" cy="18297.3687" fill="red" r="30" stroke="red" /><circle cx="-555.8833" cy="18448.0" fill="red" r="30" stroke="red" /><circle cx="-1262.3978" cy="18448.0" fill="red" r="30" stroke="red" /><circle cx="-1968.9124" cy="18448.0" fill="red" r="30" stroke="red" /><circle cx="-2675.427" cy="18448.0" fill="red" r="30" stroke="red" /><circle cx="-3104.0" cy="18725.9416" fill="red" r="30" stroke="red" /><circle cx="-3104.0" cy="19432.4562" fill="red" r="30" stroke="red" /><circle cx="-3104.0" cy="20138.9708" fill="red" r="30" stroke="red" /><circle cx="-3104.0" cy="20845.4854" fill="red" r="30" stroke="red" /></svg>