<?xml version="1.0" encoding="UTF-8"?>
<!DOCTYPE svg PUBLIC "-//W3C//DTD SVG 1.0//EN" "http://www.w3.org/TR/2001/REC-SVG-20010904/DTD/svg10.dtd">
<!-- Creator: CorelDRAW X6 -->
<svg xmlns="http://www.w3.org/2000/svg" xml:space="preserve" width="200mm" height="200mm" version="1.0" style="shape-rendering:geometricPrecision; text-rendering:geometricPrecision; image-rendering:optimizeQuality; fill-rule:evenodd; clip-rule:evenodd"
viewBox="0 0 20000 20000"
 xmlns:xlink="http://www.w3.org/1999/xlink">
 <defs>
  <style type="text/css">
   <![CDATA[
    .str0 {stroke:black;stroke-width:52.92;stroke-linecap:square;stroke-linejoin:round}
    .fil0 {fill:none}
   ]]>
  </style>
 </defs>
 <g id="Layer_x0020_1">
  <metadata id="CorelCorpID_0Corel-Layer"/>
  <path class="fil0 str0" d="M3781 24496c-18,-24 -16,-27 -34,-51 -28,-133 -181,-479 -240,-627 -84,-209 -161,-418 -245,-627 -167,-417 -322,-837 -489,-1253 -44,-27 -92,-50 -135,-76m-5495 2625c83,-139 422,-1041 514,-1270 83,-207 178,-427 251,-635 50,-142 192,-530 260,-643 43,-26 85,-49 127,-76m2193 -5385c55,23 143,76 195,110 33,35 420,1070 476,1211 319,796 627,1631 946,2430 99,248 439,1060 474,1270l59 364c-85,49 -1908,17 -2167,17 -246,0 -2108,31 -2176,-17l68 -389c35,-208 1250,-3126 1436,-3658 144,-410 344,-818 485,-1228 62,-37 138,-84 203,-110l0 -195"/>
 </g>
</svg>
