<?xml version="1.0" encoding="UTF-8"?>
<!DOCTYPE svg PUBLIC "-//W3C//DTD SVG 1.0//EN" "http://www.w3.org/TR/2001/REC-SVG-20010904/DTD/svg10.dtd">
<!-- Creator: CorelDRAW X6 -->
<svg xmlns="http://www.w3.org/2000/svg" xml:space="preserve" width="200mm" height="200mm" version="1.0" style="shape-rendering:geometricPrecision; text-rendering:geometricPrecision; image-rendering:optimizeQuality; fill-rule:evenodd; clip-rule:evenodd"
viewBox="0 0 20000 20000"
 xmlns:xlink="http://www.w3.org/1999/xlink">
 <defs>
  <style type="text/css">
   <![CDATA[
    .str0 {stroke:black;stroke-width:7.62}
    .str1 {stroke:black;stroke-width:7.62;stroke-linecap:round;stroke-linejoin:round}
    .fil0 {fill:none;fill-rule:nonzero}
   ]]>
  </style>
 </defs>
 <g id="Layer_x0020_1">
  <metadata id="CorelCorpID_0Corel-Layer"/>
  <polygon class="fil0 str0" points="-2846,15500 2846,15500 2846,16759 -204,24500 -2019,24500 911,17068 -2846,17068 "/>
  <polygon class="fil0 str1" points="2546,15800 -2546,15800 -2546,16768 911,16768 1352,16768 1190,17177 -1578,24200 -407,24200 2546,16704 "/>
  <path class="fil0 str1" d="M2246 16100l-4491 0 0 368 3157 0 440 0c166,0 300,134 300,300 0,46 -10,89 -28,128l-154 390 -2608 6614 527 0 2857 -7252 0 -548z"/>
 </g>
</svg>
