<?xml version="1.0" encoding="utf-8" ?>
<svg baseProfile="tiny" height="100%" version="1.2" width="100%" xmlns="http://www.w3.org/2000/svg" xmlns:ev="http://www.w3.org/2001/xml-events" xmlns:xlink="http://www.w3.org/1999/xlink"><defs /><circle cx="0.2246" cy="1.61" fill="red" r="30" stroke="red" /><circle cx="0.186" cy="1.61" fill="red" r="30" stroke="red" /><circle cx="0.1475" cy="1.61" fill="red" r="30" stroke="red" /><circle cx="0.1089" cy="1.61" fill="red" r="30" stroke="red" /><circle cx="0.0703" cy="1.61" fill="red" r="30" stroke="red" /><circle cx="0.0317" cy="1.61" fill="red" r="30" stroke="red" /><circle cx="-0.0068" cy="1.61" fill="red" r="30" stroke="red" /><circle cx="-0.0454" cy="1.61" fill="red" r="30" stroke="red" /><circle cx="-0.084" cy="1.61" fill="red" r="30" stroke="red" /><circle cx="-0.1226" cy="1.61" fill="red" r="30" stroke="red" /><circle cx="-0.1611" cy="1.61" fill="red" r="30" stroke="red" /><circle cx="-0.1997" cy="1.61" fill="red" r="30" stroke="red" /><circle cx="-0.2245" cy="1.6238" fill="red" r="30" stroke="red" /><circle cx="-0.209" cy="1.6468" fill="red" r="30" stroke="red" /><circle cx="-0.1704" cy="1.6468" fill="red" r="30" stroke="red" /><circle cx="-0.1318" cy="1.6468" fill="red" r="30" stroke="red" /><circle cx="-0.0932" cy="1.6468" fill="red" r="30" stroke="red" /><circle cx="-0.0547" cy="1.6468" fill="red" r="30" stroke="red" /><circle cx="-0.0161" cy="1.6468" fill="red" r="30" stroke="red" /><circle cx="0.0225" cy="1.6468" fill="red" r="30" stroke="red" /><circle cx="0.0611" cy="1.6468" fill="red" r="30" stroke="red" /><circle cx="0.0996" cy="1.6468" fill="red" r="30" stroke="red" /><circle cx="0.1383" cy="1.647" fill="red" r="30" stroke="red" /><circle cx="0.1647" cy="1.6711" fill="red" r="30" stroke="red" /><circle cx="0.1551" cy="1.708" fill="red" r="30" stroke="red" /><circle cx="0.141" cy="1.7439" fill="red" r="30" stroke="red" /><circle cx="0.1268" cy="1.7798" fill="red" r="30" stroke="red" /><circle cx="0.1127" cy="1.8157" fill="red" r="30" stroke="red" /><circle cx="0.0985" cy="1.8515" fill="red" r="30" stroke="red" /><circle cx="0.0844" cy="1.8874" fill="red" r="30" stroke="red" /><circle cx="0.0702" cy="1.9233" fill="red" r="30" stroke="red" /><circle cx="0.0561" cy="1.9592" fill="red" r="30" stroke="red" /><circle cx="0.0419" cy="1.9951" fill="red" r="30" stroke="red" /><circle cx="0.0278" cy="2.031" fill="red" r="30" stroke="red" /><circle cx="0.0136" cy="2.0668" fill="red" r="30" stroke="red" /><circle cx="-0.0005" cy="2.1027" fill="red" r="30" stroke="red" /><circle cx="-0.0147" cy="2.1386" fill="red" r="30" stroke="red" /><circle cx="-0.0288" cy="2.1745" fill="red" r="30" stroke="red" /><circle cx="-0.043" cy="2.2104" fill="red" r="30" stroke="red" /><circle cx="-0.0571" cy="2.2463" fill="red" r="30" stroke="red" /><circle cx="-0.0713" cy="2.2821" fill="red" r="30" stroke="red" /><circle cx="-0.0854" cy="2.318" fill="red" r="30" stroke="red" /><circle cx="-0.0996" cy="2.3539" fill="red" r="30" stroke="red" /><circle cx="-0.1137" cy="2.3898" fill="red" r="30" stroke="red" /><circle cx="-0.0754" cy="2.39" fill="red" r="30" stroke="red" /><circle cx="-0.0522" cy="2.3675" fill="red" r="30" stroke="red" /><circle cx="-0.0381" cy="2.3316" fill="red" r="30" stroke="red" /><circle cx="-0.0239" cy="2.2957" fill="red" r="30" stroke="red" /><circle cx="-0.0098" cy="2.2598" fill="red" r="30" stroke="red" /><circle cx="0.0043" cy="2.2239" fill="red" r="30" stroke="red" /><circle cx="0.0185" cy="2.188" fill="red" r="30" stroke="red" /><circle cx="0.0326" cy="2.1521" fill="red" r="30" stroke="red" /><circle cx="0.0467" cy="2.1162" fill="red" r="30" stroke="red" /><circle cx="0.0609" cy="2.0804" fill="red" r="30" stroke="red" /><circle cx="0.075" cy="2.0445" fill="red" r="30" stroke="red" /><circle cx="0.0892" cy="2.0086" fill="red" r="30" stroke="red" /><circle cx="0.1033" cy="1.9727" fill="red" r="30" stroke="red" /><circle cx="0.1174" cy="1.9368" fill="red" r="30" stroke="red" /><circle cx="0.1316" cy="1.9009" fill="red" r="30" stroke="red" /><circle cx="0.1457" cy="1.865" fill="red" r="30" stroke="red" /><circle cx="0.1599" cy="1.8291" fill="red" r="30" stroke="red" /><circle cx="0.174" cy="1.7933" fill="red" r="30" stroke="red" /><circle cx="0.1881" cy="1.7574" fill="red" r="30" stroke="red" /><circle cx="0.2023" cy="1.7215" fill="red" r="30" stroke="red" /><circle cx="0.2164" cy="1.6856" fill="red" r="30" stroke="red" /><circle cx="0.2246" cy="1.6486" fill="red" r="30" stroke="red" /><circle cx="-0.2846" cy="1.55" fill="red" r="30" stroke="red" /><circle cx="-0.2385" cy="1.55" fill="red" r="30" stroke="red" /><circle cx="-0.1925" cy="1.55" fill="red" r="30" stroke="red" /><circle cx="-0.1464" cy="1.55" fill="red" r="30" stroke="red" /><circle cx="-0.1004" cy="1.55" fill="red" r="30" stroke="red" /><circle cx="-0.0543" cy="1.55" fill="red" r="30" stroke="red" /><circle cx="-0.0082" cy="1.55" fill="red" r="30" stroke="red" /><circle cx="0.0378" cy="1.55" fill="red" r="30" stroke="red" /><circle cx="0.0839" cy="1.55" fill="red" r="30" stroke="red" /><circle cx="0.1299" cy="1.55" fill="red" r="30" stroke="red" /><circle cx="0.176" cy="1.55" fill="red" r="30" stroke="red" /><circle cx="0.2221" cy="1.55" fill="red" r="30" stroke="red" /><circle cx="0.2681" cy="1.55" fill="red" r="30" stroke="red" /><circle cx="0.2846" cy="1.5796" fill="red" r="30" stroke="red" /><circle cx="0.2846" cy="1.6256" fill="red" r="30" stroke="red" /><circle cx="0.2846" cy="1.6717" fill="red" r="30" stroke="red" /><circle cx="0.2693" cy="1.7149" fill="red" r="30" stroke="red" /><circle cx="0.2524" cy="1.7577" fill="red" r="30" stroke="red" /><circle cx="0.2355" cy="1.8006" fill="red" r="30" stroke="red" /><circle cx="0.2186" cy="1.8434" fill="red" r="30" stroke="red" /><circle cx="0.2017" cy="1.8863" fill="red" r="30" stroke="red" /><circle cx="0.1848" cy="1.9291" fill="red" r="30" stroke="red" /><circle cx="0.1679" cy="1.972" fill="red" r="30" stroke="red" /><circle cx="0.1511" cy="2.0148" fill="red" r="30" stroke="red" /><circle cx="0.1342" cy="2.0577" fill="red" r="30" stroke="red" /><circle cx="0.1173" cy="2.1005" fill="red" r="30" stroke="red" /><circle cx="0.1004" cy="2.1434" fill="red" r="30" stroke="red" /><circle cx="0.0835" cy="2.1862" fill="red" r="30" stroke="red" /><circle cx="0.0666" cy="2.2291" fill="red" r="30" stroke="red" /><circle cx="0.0498" cy="2.272" fill="red" r="30" stroke="red" /><circle cx="0.0329" cy="2.3148" fill="red" r="30" stroke="red" /><circle cx="0.016" cy="2.3577" fill="red" r="30" stroke="red" /><circle cx="-0.0009" cy="2.4005" fill="red" r="30" stroke="red" /><circle cx="-0.0178" cy="2.4434" fill="red" r="30" stroke="red" /><circle cx="-0.0593" cy="2.45" fill="red" r="30" stroke="red" /><circle cx="-0.1054" cy="2.45" fill="red" r="30" stroke="red" /><circle cx="-0.1515" cy="2.45" fill="red" r="30" stroke="red" /><circle cx="-0.1975" cy="2.45" fill="red" r="30" stroke="red" /><circle cx="-0.1866" cy="2.4112" fill="red" r="30" stroke="red" /><circle cx="-0.1697" cy="2.3684" fill="red" r="30" stroke="red" /><circle cx="-0.1528" cy="2.3255" fill="red" r="30" stroke="red" /><circle cx="-0.1359" cy="2.2827" fill="red" r="30" stroke="red" /><circle cx="-0.119" cy="2.2398" fill="red" r="30" stroke="red" /><circle cx="-0.1021" cy="2.197" fill="red" r="30" stroke="red" /><circle cx="-0.0853" cy="2.1541" fill="red" r="30" stroke="red" /><circle cx="-0.0684" cy="2.1113" fill="red" r="30" stroke="red" /><circle cx="-0.0515" cy="2.0684" fill="red" r="30" stroke="red" /><circle cx="-0.0346" cy="2.0256" fill="red" r="30" stroke="red" /><circle cx="-0.0177" cy="1.9827" fill="red" r="30" stroke="red" /><circle cx="-0.0008" cy="1.9399" fill="red" r="30" stroke="red" /><circle cx="0.0161" cy="1.897" fill="red" r="30" stroke="red" /><circle cx="0.033" cy="1.8542" fill="red" r="30" stroke="red" /><circle cx="0.0499" cy="1.8113" fill="red" r="30" stroke="red" /><circle cx="0.0668" cy="1.7685" fill="red" r="30" stroke="red" /><circle cx="0.0837" cy="1.7256" fill="red" r="30" stroke="red" /><circle cx="0.0653" cy="1.7068" fill="red" r="30" stroke="red" /><circle cx="0.0192" cy="1.7068" fill="red" r="30" stroke="red" /><circle cx="-0.0269" cy="1.7068" fill="red" r="30" stroke="red" /><circle cx="-0.0729" cy="1.7068" fill="red" r="30" stroke="red" /><circle cx="-0.119" cy="1.7068" fill="red" r="30" stroke="red" /><circle cx="-0.165" cy="1.7068" fill="red" r="30" stroke="red" /><circle cx="-0.2111" cy="1.7068" fill="red" r="30" stroke="red" /><circle cx="-0.2572" cy="1.7068" fill="red" r="30" stroke="red" /><circle cx="-0.2846" cy="1.6882" fill="red" r="30" stroke="red" /><circle cx="-0.2846" cy="1.6421" fill="red" r="30" stroke="red" /><circle cx="-0.2846" cy="1.5961" fill="red" r="30" stroke="red" /><circle cx="0.2546" cy="1.58" fill="red" r="30" stroke="red" /><circle cx="0.2121" cy="1.58" fill="red" r="30" stroke="red" /><circle cx="0.1695" cy="1.58" fill="red" r="30" stroke="red" /><circle cx="0.127" cy="1.58" fill="red" r="30" stroke="red" /><circle cx="0.0844" cy="1.58" fill="red" r="30" stroke="red" /><circle cx="0.0419" cy="1.58" fill="red" r="30" stroke="red" /><circle cx="-0.0007" cy="1.58" fill="red" r="30" stroke="red" /><circle cx="-0.0432" cy="1.58" fill="red" r="30" stroke="red" /><circle cx="-0.0857" cy="1.58" fill="red" r="30" stroke="red" /><circle cx="-0.1283" cy="1.58" fill="red" r="30" stroke="red" /><circle cx="-0.1708" cy="1.58" fill="red" r="30" stroke="red" /><circle cx="-0.2134" cy="1.58" fill="red" r="30" stroke="red" /><circle cx="-0.2546" cy="1.5813" fill="red" r="30" stroke="red" /><circle cx="-0.2546" cy="1.6239" fill="red" r="30" stroke="red" /><circle cx="-0.2546" cy="1.6664" fill="red" r="30" stroke="red" /><circle cx="-0.2225" cy="1.6768" fill="red" r="30" stroke="red" /><circle cx="-0.1799" cy="1.6768" fill="red" r="30" stroke="red" /><circle cx="-0.1374" cy="1.6768" fill="red" r="30" stroke="red" /><circle cx="-0.0948" cy="1.6768" fill="red" r="30" stroke="red" /><circle cx="-0.0523" cy="1.6768" fill="red" r="30" stroke="red" /><circle cx="-0.0097" cy="1.6768" fill="red" r="30" stroke="red" /><circle cx="0.0328" cy="1.6768" fill="red" r="30" stroke="red" /><circle cx="0.0753" cy="1.6768" fill="red" r="30" stroke="red" /><circle cx="0.1179" cy="1.6768" fill="red" r="30" stroke="red" /><circle cx="0.1259" cy="1.7003" fill="red" r="30" stroke="red" /><circle cx="0.1103" cy="1.7398" fill="red" r="30" stroke="red" /><circle cx="0.0947" cy="1.7794" fill="red" r="30" stroke="red" /><circle cx="0.0791" cy="1.819" fill="red" r="30" stroke="red" /><circle cx="0.0635" cy="1.8586" fill="red" r="30" stroke="red" /><circle cx="0.0479" cy="1.8981" fill="red" r="30" stroke="red" /><circle cx="0.0323" cy="1.9377" fill="red" r="30" stroke="red" /><circle cx="0.0167" cy="1.9773" fill="red" r="30" stroke="red" /><circle cx="0.0011" cy="2.0169" fill="red" r="30" stroke="red" /><circle cx="-0.0145" cy="2.0565" fill="red" r="30" stroke="red" /><circle cx="-0.0301" cy="2.096" fill="red" r="30" stroke="red" /><circle cx="-0.0457" cy="2.1356" fill="red" r="30" stroke="red" /><circle cx="-0.0613" cy="2.1752" fill="red" r="30" stroke="red" /><circle cx="-0.0769" cy="2.2148" fill="red" r="30" stroke="red" /><circle cx="-0.0925" cy="2.2544" fill="red" r="30" stroke="red" /><circle cx="-0.1081" cy="2.2939" fill="red" r="30" stroke="red" /><circle cx="-0.1237" cy="2.3335" fill="red" r="30" stroke="red" /><circle cx="-0.1393" cy="2.3731" fill="red" r="30" stroke="red" /><circle cx="-0.1549" cy="2.4127" fill="red" r="30" stroke="red" /><circle cx="-0.1231" cy="2.42" fill="red" r="30" stroke="red" /><circle cx="-0.0806" cy="2.42" fill="red" r="30" stroke="red" /><circle cx="-0.0397" cy="2.4175" fill="red" r="30" stroke="red" /><circle cx="-0.0241" cy="2.3779" fill="red" r="30" stroke="red" /><circle cx="-0.0085" cy="2.3384" fill="red" r="30" stroke="red" /><circle cx="0.0071" cy="2.2988" fill="red" r="30" stroke="red" /><circle cx="0.0226" cy="2.2592" fill="red" r="30" stroke="red" /><circle cx="0.0382" cy="2.2196" fill="red" r="30" stroke="red" /><circle cx="0.0538" cy="2.18" fill="red" r="30" stroke="red" /><circle cx="0.0694" cy="2.1404" fill="red" r="30" stroke="red" /><circle cx="0.085" cy="2.1009" fill="red" r="30" stroke="red" /><circle cx="0.1006" cy="2.0613" fill="red" r="30" stroke="red" /><circle cx="0.1162" cy="2.0217" fill="red" r="30" stroke="red" /><circle cx="0.1318" cy="1.9821" fill="red" r="30" stroke="red" /><circle cx="0.1474" cy="1.9425" fill="red" r="30" stroke="red" /><circle cx="0.163" cy="1.9029" fill="red" r="30" stroke="red" /><circle cx="0.1786" cy="1.8634" fill="red" r="30" stroke="red" /><circle cx="0.1942" cy="1.8238" fill="red" r="30" stroke="red" /><circle cx="0.2098" cy="1.7842" fill="red" r="30" stroke="red" /><circle cx="0.2254" cy="1.7446" fill="red" r="30" stroke="red" /><circle cx="0.241" cy="1.705" fill="red" r="30" stroke="red" /><circle cx="0.2546" cy="1.6651" fill="red" r="30" stroke="red" /><circle cx="0.2546" cy="1.6225" fill="red" r="30" stroke="red" /></svg>