<?xml version="1.0" encoding="utf-8" ?>
<svg baseProfile="tiny" height="100%" version="1.2" width="100%" xmlns="http://www.w3.org/2000/svg" xmlns:ev="http://www.w3.org/2001/xml-events" xmlns:xlink="http://www.w3.org/1999/xlink"><defs /><circle cx="-2846.0" cy="15500.0" fill="red" r="30" stroke="red" /><circle cx="-1832.6699" cy="15500.0" fill="red" r="30" stroke="red" /><circle cx="-819.3398" cy="15500.0" fill="red" r="30" stroke="red" /><circle cx="193.9903" cy="15500.0" fill="red" r="30" stroke="red" /><circle cx="1207.3205" cy="15500.0" fill="red" r="30" stroke="red" /><circle cx="2220.6506" cy="15500.0" fill="red" r="30" stroke="red" /><circle cx="2846.0" cy="15887.9807" fill="red" r="30" stroke="red" /><circle cx="2793.832" cy="16891.4042" fill="red" r="30" stroke="red" /><circle cx="2422.3673" cy="17834.1936" fill="red" r="30" stroke="red" /><circle cx="2050.9027" cy="18776.9831" fill="red" r="30" stroke="red" /><circle cx="1679.438" cy="19719.7725" fill="red" r="30" stroke="red" /><circle cx="1307.9734" cy="20662.5619" fill="red" r="30" stroke="red" /><circle cx="936.5088" cy="21605.3514" fill="red" r="30" stroke="red" /><circle cx="565.0441" cy="22548.1408" fill="red" r="30" stroke="red" /><circle cx="193.5795" cy="23490.9303" fill="red" r="30" stroke="red" /><circle cx="-177.8852" cy="24433.7197" fill="red" r="30" stroke="red" /><circle cx="-1146.0907" cy="24500.0" fill="red" r="30" stroke="red" /><circle cx="-1967.4982" cy="24369.3648" fill="red" r="30" stroke="red" /><circle cx="-1595.8417" cy="23426.651" fill="red" r="30" stroke="red" /><circle cx="-1224.1851" cy="22483.9371" fill="red" r="30" stroke="red" /><circle cx="-852.5286" cy="21541.2233" fill="red" r="30" stroke="red" /><circle cx="-480.872" cy="20598.5095" fill="red" r="30" stroke="red" /><circle cx="-109.2155" cy="19655.7957" fill="red" r="30" stroke="red" /><circle cx="262.4411" cy="18713.0819" fill="red" r="30" stroke="red" /><circle cx="634.0976" cy="17770.3681" fill="red" r="30" stroke="red" /><circle cx="652.6506" cy="17068.0" fill="red" r="30" stroke="red" /><circle cx="-360.6795" cy="17068.0" fill="red" r="30" stroke="red" /><circle cx="-1374.0097" cy="17068.0" fill="red" r="30" stroke="red" /><circle cx="-2387.3398" cy="17068.0" fill="red" r="30" stroke="red" /><circle cx="-2846.0" cy="16513.3301" fill="red" r="30" stroke="red" /></svg>