<?xml version="1.0" encoding="UTF-8"?>
<!DOCTYPE svg PUBLIC "-//W3C//DTD SVG 1.0//EN" "http://www.w3.org/TR/2001/REC-SVG-20010904/DTD/svg10.dtd">
<!-- Creator: CorelDRAW X6 -->
<svg xmlns="http://www.w3.org/2000/svg" xml:space="preserve" width="200mm" height="200mm" version="1.0" style="shape-rendering:geometricPrecision; text-rendering:geometricPrecision; image-rendering:optimizeQuality; fill-rule:evenodd; clip-rule:evenodd"
viewBox="0 0 20000 20000"
 xmlns:xlink="http://www.w3.org/1999/xlink">
 <defs>
  <style type="text/css">
   <![CDATA[
    .str0 {stroke:black;stroke-width:52.92;stroke-linecap:round;stroke-linejoin:round}
    .fil0 {fill:none}
   ]]>
  </style>
 </defs>
 <g id="Layer_x0020_1">
  <metadata id="CorelCorpID_0Corel-Layer"/>
  <path class="fil0 str0" d="M0 19545c0,-502 -373,-909 -833,-909 -460,0 -833,407 -833,909 0,1004 746,1818 1667,1818 920,0 1667,-814 1667,-1818 0,-1506 -1119,-2727 -2500,-2727 -1381,0 -2500,1221 -2500,2727 0,2008 1492,3636 3333,3636 1841,0 3333,-1628 3333,-3636 0,-2510 -1865,-4545 -4167,-4545 -2301,0 -4167,2035 -4167,4545 0,3012 2239,5455 5000,5455 2761,0 5000,-2442 5000,-5455"/>
 </g>
</svg>
