<?xml version="1.0" encoding="utf-8" ?>
<svg baseProfile="tiny" height="100%" version="1.2" width="100%" xmlns="http://www.w3.org/2000/svg" xmlns:ev="http://www.w3.org/2001/xml-events" xmlns:xlink="http://www.w3.org/1999/xlink"><defs /><circle cx="0.0" cy="19545.0" fill="red" r="30" stroke="red" /><circle cx="-176.2765" cy="18985.7661" fill="red" r="30" stroke="red" /><circle cx="-620.2924" cy="18665.9108" fill="red" r="30" stroke="red" /><circle cx="-1169.4637" cy="18713.217" fill="red" r="30" stroke="red" /><circle cx="-1561.0219" cy="19102.9487" fill="red" r="30" stroke="red" /><circle cx="-1660.4283" cy="19694.7423" fill="red" r="30" stroke="red" /><circle cx="-1524.5385" cy="20279.1356" fill="red" r="30" stroke="red" /><circle cx="-1230.5996" cy="20770.311" fill="red" r="30" stroke="red" /><circle cx="-810.3306" cy="21133.6049" fill="red" r="30" stroke="red" /><circle cx="-295.4508" cy="21334.3541" fill="red" r="30" stroke="red" /><circle cx="271.5742" cy="21339.1438" fill="red" r="30" stroke="red" /><circle cx="789.91" cy="21146.7455" fill="red" r="30" stroke="red" /><circle cx="1215.3701" cy="20790.1714" fill="red" r="30" stroke="red" /><circle cx="1516.0605" cy="20304.0937" fill="red" r="30" stroke="red" /><circle cx="1660.0876" cy="19723.1842" fill="red" r="30" stroke="red" /><circle cx="1635.2354" cy="19102.3407" fill="red" r="30" stroke="red" /><circle cx="1486.3646" cy="18522.5453" fill="red" r="30" stroke="red" /><circle cx="1230.093" cy="18002.694" fill="red" r="30" stroke="red" /><circle cx="880.531" cy="17558.1976" fill="red" r="30" stroke="red" /><circle cx="451.7884" cy="17204.4669" fill="red" r="30" stroke="red" /><circle cx="-42.0244" cy="16956.9128" fill="red" r="30" stroke="red" /><circle cx="-586.7974" cy="16830.9461" fill="red" r="30" stroke="red" /><circle cx="-1158.3365" cy="16841.0159" fill="red" r="30" stroke="red" /><circle cx="-1696.634" cy="16985.46" fill="red" r="30" stroke="red" /><circle cx="-2181.9373" cy="17249.2701" fill="red" r="30" stroke="red" /><circle cx="-2600.1364" cy="17617.0352" fill="red" r="30" stroke="red" /><circle cx="-2937.1211" cy="18073.3447" fill="red" r="30" stroke="red" /><circle cx="-3178.7812" cy="18602.7875" fill="red" r="30" stroke="red" /><circle cx="-3311.0067" cy="19189.9529" fill="red" r="30" stroke="red" /><circle cx="-3323.0087" cy="19814.1281" fill="red" r="30" stroke="red" /><circle cx="-3235.0383" cy="20419.2212" fill="red" r="30" stroke="red" /><circle cx="-3059.7088" cy="20986.782" fill="red" r="30" stroke="red" /><circle cx="-2804.9606" cy="21508.1406" fill="red" r="30" stroke="red" /><circle cx="-2478.7344" cy="21974.627" fill="red" r="30" stroke="red" /><circle cx="-2088.9706" cy="22377.5712" fill="red" r="30" stroke="red" /><circle cx="-1643.6097" cy="22708.3032" fill="red" r="30" stroke="red" /><circle cx="-1150.5924" cy="22958.153" fill="red" r="30" stroke="red" /><circle cx="-617.8592" cy="23118.4508" fill="red" r="30" stroke="red" /><circle cx="-53.3505" cy="23180.5264" fill="red" r="30" stroke="red" /><circle cx="516.0361" cy="23137.86" fill="red" r="30" stroke="red" /><circle cx="1055.3419" cy="22995.3458" fill="red" r="30" stroke="red" /><circle cx="1556.4228" cy="22761.6513" fill="red" r="30" stroke="red" /><circle cx="2011.3384" cy="22445.4466" fill="red" r="30" stroke="red" /><circle cx="2412.1481" cy="22055.4016" fill="red" r="30" stroke="red" /><circle cx="2750.9113" cy="21600.1864" fill="red" r="30" stroke="red" /><circle cx="3019.6876" cy="21088.4708" fill="red" r="30" stroke="red" /><circle cx="3210.5363" cy="20528.925" fill="red" r="30" stroke="red" /><circle cx="3315.5171" cy="19930.2187" fill="red" r="30" stroke="red" /><circle cx="3328.2595" cy="19304.3332" fill="red" r="30" stroke="red" /><circle cx="3260.7426" cy="18691.9798" fill="red" r="30" stroke="red" /><circle cx="3121.2962" cy="18107.406" fill="red" r="30" stroke="red" /><circle cx="2914.9979" cy="17556.1592" fill="red" r="30" stroke="red" /><circle cx="2646.9257" cy="17043.7863" fill="red" r="30" stroke="red" /><circle cx="2322.1573" cy="16575.8348" fill="red" r="30" stroke="red" /><circle cx="1945.7706" cy="16157.8517" fill="red" r="30" stroke="red" /><circle cx="1522.8434" cy="15795.3842" fill="red" r="30" stroke="red" /><circle cx="1058.4535" cy="15493.9796" fill="red" r="30" stroke="red" /><circle cx="557.6788" cy="15259.1851" fill="red" r="30" stroke="red" /><circle cx="25.597" cy="15096.5478" fill="red" r="30" stroke="red" /><circle cx="-532.714" cy="15011.615" fill="red" r="30" stroke="red" /><circle cx="-1107.8515" cy="15009.7328" fill="red" r="30" stroke="red" /><circle cx="-1667.0531" cy="15091.09" fill="red" r="30" stroke="red" /><circle cx="-2200.318" cy="15250.4031" fill="red" r="30" stroke="red" /><circle cx="-2702.5572" cy="15482.1242" fill="red" r="30" stroke="red" /><circle cx="-3168.6817" cy="15780.7056" fill="red" r="30" stroke="red" /><circle cx="-3593.6025" cy="16140.5996" fill="red" r="30" stroke="red" /><circle cx="-3972.2306" cy="16556.2583" fill="red" r="30" stroke="red" /><circle cx="-4299.477" cy="17022.1342" fill="red" r="30" stroke="red" /><circle cx="-4570.2527" cy="17532.6793" fill="red" r="30" stroke="red" /><circle cx="-4779.4688" cy="18082.346" fill="red" r="30" stroke="red" /><circle cx="-4922.0362" cy="18665.5864" fill="red" r="30" stroke="red" /><circle cx="-4992.8659" cy="19276.8529" fill="red" r="30" stroke="red" /><circle cx="-4989.3033" cy="19904.5853" fill="red" r="30" stroke="red" /><circle cx="-4920.8553" cy="20516.7473" fill="red" r="30" stroke="red" /><circle cx="-4792.1443" cy="21106.1163" fill="red" r="30" stroke="red" /><circle cx="-4606.7035" cy="21668.836" fill="red" r="30" stroke="red" /><circle cx="-4368.066" cy="22201.0502" fill="red" r="30" stroke="red" /><circle cx="-4079.7648" cy="22698.9028" fill="red" r="30" stroke="red" /><circle cx="-3745.3331" cy="23158.5375" fill="red" r="30" stroke="red" /><circle cx="-3368.304" cy="23576.0983" fill="red" r="30" stroke="red" /><circle cx="-2952.2106" cy="23947.7289" fill="red" r="30" stroke="red" /><circle cx="-2500.5861" cy="24269.5732" fill="red" r="30" stroke="red" /><circle cx="-2016.9635" cy="24537.775" fill="red" r="30" stroke="red" /><circle cx="-1504.876" cy="24748.478" fill="red" r="30" stroke="red" /><circle cx="-967.8567" cy="24897.8262" fill="red" r="30" stroke="red" /><circle cx="-409.4387" cy="24981.9633" fill="red" r="30" stroke="red" /><circle cx="165.5794" cy="24997.0647" fill="red" r="30" stroke="red" /><circle cx="732.0369" cy="24941.9428" fill="red" r="30" stroke="red" /><circle cx="1278.604" cy="24819.9896" fill="red" r="30" stroke="red" /><circle cx="1801.7478" cy="24635.0546" fill="red" r="30" stroke="red" /><circle cx="2297.9356" cy="24390.9878" fill="red" r="30" stroke="red" /><circle cx="2763.6343" cy="24091.6387" fill="red" r="30" stroke="red" /><circle cx="3195.3113" cy="23740.8571" fill="red" r="30" stroke="red" /><circle cx="3589.4336" cy="23342.4927" fill="red" r="30" stroke="red" /><circle cx="3942.4684" cy="22900.3953" fill="red" r="30" stroke="red" /><circle cx="4250.8829" cy="22418.4145" fill="red" r="30" stroke="red" /><circle cx="4511.1441" cy="21900.4" fill="red" r="30" stroke="red" /><circle cx="4719.7193" cy="21350.2016" fill="red" r="30" stroke="red" /><circle cx="4873.0756" cy="20771.669" fill="red" r="30" stroke="red" /><circle cx="4967.6801" cy="20168.6519" fill="red" r="30" stroke="red" /></svg>